HIERARCHY
ROOT newVegas:Hips
{
	OFFSET 0.000000 96.479958 0.000000
	CHANNELS 6 Xposition Yposition Zposition Xrotation Yrotation Zrotation
	JOINT newVegas:Pelvis
	{
		OFFSET 0.000000 0.000000 0.000000
		CHANNELS 3 Xrotation Yrotation Zrotation
		JOINT newVegas:LeftUpLeg
		{
			OFFSET 18.735201 -5.666702 -4.541200
			CHANNELS 3 Xrotation Yrotation Zrotation
			JOINT newVegas:LeftLeg
			{
				OFFSET -0.021200 -31.938179 0.493100
				CHANNELS 3 Xrotation Yrotation Zrotation
				JOINT newVegas:LeftFoot
				{
					OFFSET 0.021200 -31.938179 -4.336299
					CHANNELS 3 Xrotation Yrotation Zrotation
					JOINT newVegas:LeftToeBase
					{
						OFFSET 0.943001 -26.722000 15.023500
						CHANNELS 3 Xrotation Yrotation Zrotation
						End Site
						{
							OFFSET 0.000000 30.670183 0.000000
						}
					}
				}
				JOINT newVegas:Left_PantLeg
				{
					OFFSET 0.663870 -9.044666 -1.108900
					CHANNELS 3 Xrotation Yrotation Zrotation
					End Site
					{
						OFFSET 1.415995 20.635357 0.000000
					}
				}
			}
		}
		JOINT newVegas:RightUpLeg
		{
			OFFSET -18.735201 -5.666702 -4.541200
			CHANNELS 3 Xrotation Yrotation Zrotation
			JOINT newVegas:RightLeg
			{
				OFFSET 0.018946 -31.938133 0.493100
				CHANNELS 3 Xrotation Yrotation Zrotation
				JOINT newVegas:RightFoot
				{
					OFFSET -0.018946 -31.938126 -4.336299
					CHANNELS 3 Xrotation Yrotation Zrotation
					JOINT newVegas:RightToeBase
					{
						OFFSET -0.943001 -26.722004 15.023500
						CHANNELS 3 Xrotation Yrotation Zrotation
						End Site
						{
							OFFSET 0.000000 30.670187 0.000000
						}
					}
				}
				JOINT newVegas:Right_PantLeg
				{
					OFFSET -0.661674 -9.044716 -1.108900
					CHANNELS 3 Xrotation Yrotation Zrotation
					End Site
					{
						OFFSET -1.415958 20.635269 0.000000
					}
				}
			}
		}
	}
	JOINT newVegas:Spine
	{
		OFFSET 0.000000 10.199997 -0.299500
		CHANNELS 3 Xrotation Yrotation Zrotation
		JOINT newVegas:Spine1
		{
			OFFSET 0.000000 11.900002 -1.516600
			CHANNELS 3 Xrotation Yrotation Zrotation
			JOINT newVegas:Spine2
			{
				OFFSET 0.000000 13.600006 -2.842500
				CHANNELS 3 Xrotation Yrotation Zrotation
				JOINT newVegas:Neck
				{
					OFFSET 0.000000 9.624100 -2.890100
					CHANNELS 3 Xrotation Yrotation Zrotation
					JOINT newVegas:Head
					{
						OFFSET 0.000000 14.068802 -1.351900
						CHANNELS 3 Xrotation Yrotation Zrotation
						JOINT newVegas:Hair_Back
						{
							OFFSET 0.000000 3.231903 -17.524799
							CHANNELS 3 Xrotation Yrotation Zrotation
							End Site
							{
								OFFSET 0.000000 19.849884 0.000000
							}
						}
						JOINT newVegas:Hair_Front
						{
							OFFSET 0.000000 31.260406 4.573800
							CHANNELS 3 Xrotation Yrotation Zrotation
							JOINT newVegas:Hair_Front1
							{
								OFFSET 0.000000 2.284103 11.993300
								CHANNELS 3 Xrotation Yrotation Zrotation
								JOINT newVegas:Hair_Front2
								{
									OFFSET 0.000000 2.284103 11.993300
									CHANNELS 3 Xrotation Yrotation Zrotation
									End Site
									{
										OFFSET 0.000000 12.208862 0.000000
									}
								}
							}
						}
						JOINT newVegas:Jowel
						{
							OFFSET 0.000000 -7.458206 6.864100
							CHANNELS 3 Xrotation Yrotation Zrotation
							End Site
							{
								OFFSET 0.000000 19.849884 0.000000
							}
						}
					}
				}
				JOINT newVegas:LeftShoulder
				{
					OFFSET 15.263000 10.923401 -0.547700
					CHANNELS 3 Xrotation Yrotation Zrotation
					JOINT newVegas:LeftArm
					{
						OFFSET 25.438599 -2.830597 -13.032500
						CHANNELS 3 Xrotation Yrotation Zrotation
						JOINT newVegas:LeftForeArm
						{
							OFFSET 29.960503 0.000000 0.000000
							CHANNELS 3 Xrotation Yrotation Zrotation
							JOINT newVegas:LeftHand
							{
								OFFSET 27.849251 0.000000 0.000000
								CHANNELS 3 Xrotation Yrotation Zrotation
								JOINT newVegas:LeftHandThumb1
								{
									OFFSET 4.487587 -3.305161 6.305391
									CHANNELS 3 Xrotation Yrotation Zrotation
									JOINT newVegas:LeftHandThumb2
									{
										OFFSET 5.480453 -3.164139 3.164143
										CHANNELS 3 Xrotation Yrotation Zrotation
										JOINT newVegas:LeftHandThumb3
										{
											OFFSET 5.159721 -2.978973 2.978967
											CHANNELS 3 Xrotation Yrotation Zrotation
											End Site
											{
												OFFSET 2.494507 5.926697 1.738678
											}
										}
									}
								}
								JOINT newVegas:LeftHandIndex1
								{
									OFFSET 18.578728 -0.527832 5.208049
									CHANNELS 3 Xrotation Yrotation Zrotation
									JOINT newVegas:LeftHandIndex2
									{
										OFFSET 3.192009 0.000000 0.000000
										CHANNELS 3 Xrotation Yrotation Zrotation
										JOINT newVegas:LeftHandIndex3
										{
											OFFSET 3.835129 0.000000 0.000000
											CHANNELS 3 Xrotation Yrotation Zrotation
											End Site
											{
												OFFSET -0.034599 3.816971 0.371180
											}
										}
									}
								}
								JOINT newVegas:LeftHandMiddle1
								{
									OFFSET 18.476105 0.000000 0.000000
									CHANNELS 3 Xrotation Yrotation Zrotation
									JOINT newVegas:LeftHandMiddle2
									{
										OFFSET 3.324875 0.000000 0.000000
										CHANNELS 3 Xrotation Yrotation Zrotation
										JOINT newVegas:LeftHandMiddle3
										{
											OFFSET 4.596550 0.000000 0.000000
											CHANNELS 3 Xrotation Yrotation Zrotation
											End Site
											{
												OFFSET 0.057701 4.578827 0.399218
											}
										}
									}
								}
								JOINT newVegas:LeftHandRing1
								{
									OFFSET 17.732719 0.121887 -4.201567
									CHANNELS 3 Xrotation Yrotation Zrotation
									JOINT newVegas:LeftHandRing2
									{
										OFFSET 2.733170 0.000000 0.000000
										CHANNELS 3 Xrotation Yrotation Zrotation
										JOINT newVegas:LeftHandRing3
										{
											OFFSET 3.178268 0.000000 0.000000
											CHANNELS 3 Xrotation Yrotation Zrotation
											End Site
											{
												OFFSET 0.119102 3.170624 0.185394
											}
										}
									}
								}
								JOINT newVegas:LeftHandPinky1
								{
									OFFSET 15.989624 -0.606689 -7.535461
									CHANNELS 3 Xrotation Yrotation Zrotation
									JOINT newVegas:LeftHandPinky2
									{
										OFFSET 2.538986 0.000000 0.000000
										CHANNELS 3 Xrotation Yrotation Zrotation
										JOINT newVegas:LeftHandPinky3
										{
											OFFSET 2.593102 0.000000 0.000000
											CHANNELS 3 Xrotation Yrotation Zrotation
											End Site
											{
												OFFSET -0.150902 2.584198 0.152708
											}
										}
									}
								}
							}
							JOINT newVegas:Left_Sleeve
							{
								OFFSET 0.267448 -0.649796 0.577675
								CHANNELS 3 Xrotation Yrotation Zrotation
								End Site
								{
									OFFSET 0.000000 15.991241 0.000000
								}
							}
							JOINT newVegas:Left_CapeC
							{
								OFFSET 15.715958 -8.608795 -6.935905
								CHANNELS 3 Xrotation Yrotation Zrotation
								JOINT newVegas:Left_CapeC1
								{
									OFFSET 0.000000 -8.688499 0.000000
									CHANNELS 3 Xrotation Yrotation Zrotation
									End Site
									{
										OFFSET 0.000000 8.688499 0.000000
									}
								}
							}
						}
						JOINT newVegas:Left_CapeB
						{
							OFFSET 26.118385 -8.608795 -7.079235
							CHANNELS 3 Xrotation Yrotation Zrotation
							JOINT newVegas:Left_CapeB1
							{
								OFFSET 0.000000 -8.688499 0.000000
								CHANNELS 3 Xrotation Yrotation Zrotation
								End Site
								{
									OFFSET 0.000000 8.688499 0.000000
								}
							}
						}
						JOINT newVegas:Left_CapeA
						{
							OFFSET 5.115639 -8.608795 -10.395809
							CHANNELS 3 Xrotation Yrotation Zrotation
							JOINT newVegas:Left_CapeA1
							{
								OFFSET 0.000000 -8.688499 0.000000
								CHANNELS 3 Xrotation Yrotation Zrotation
								End Site
								{
									OFFSET 0.000000 8.688499 0.000000
								}
							}
						}
					}
				}
				JOINT newVegas:RightShoulder
				{
					OFFSET -15.263000 10.923401 -0.547700
					CHANNELS 3 Xrotation Yrotation Zrotation
					JOINT newVegas:RightArm
					{
						OFFSET -25.438599 -2.830597 -13.032500
						CHANNELS 3 Xrotation Yrotation Zrotation
						JOINT newVegas:RightForeArm
						{
							OFFSET -29.960503 0.000000 0.000000
							CHANNELS 3 Xrotation Yrotation Zrotation
							JOINT newVegas:RightHand
							{
								OFFSET -27.849251 0.000000 0.000000
								CHANNELS 3 Xrotation Yrotation Zrotation
								JOINT newVegas:RightHandThumb1
								{
									OFFSET -4.487587 -3.305161 6.305391
									CHANNELS 3 Xrotation Yrotation Zrotation
									JOINT newVegas:RightHandThumb2
									{
										OFFSET -5.480453 -3.164139 3.164143
										CHANNELS 3 Xrotation Yrotation Zrotation
										JOINT newVegas:RightHandThumb3
										{
											OFFSET -5.159721 -2.978973 2.978967
											CHANNELS 3 Xrotation Yrotation Zrotation
											End Site
											{
												OFFSET -2.494507 5.926697 1.738678
											}
										}
									}
								}
								JOINT newVegas:RightHandIndex1
								{
									OFFSET -18.578728 -0.527832 5.208049
									CHANNELS 3 Xrotation Yrotation Zrotation
									JOINT newVegas:RightHandIndex2
									{
										OFFSET -3.192009 0.000000 0.000000
										CHANNELS 3 Xrotation Yrotation Zrotation
										JOINT newVegas:RightHandIndex3
										{
											OFFSET -3.835129 0.000000 0.000000
											CHANNELS 3 Xrotation Yrotation Zrotation
											End Site
											{
												OFFSET 0.034599 3.816971 0.371180
											}
										}
									}
								}
								JOINT newVegas:RightHandMiddle1
								{
									OFFSET -18.476105 0.000000 0.000000
									CHANNELS 3 Xrotation Yrotation Zrotation
									JOINT newVegas:RightHandMiddle2
									{
										OFFSET -3.324875 0.000000 0.000000
										CHANNELS 3 Xrotation Yrotation Zrotation
										JOINT newVegas:RightHandMiddle3
										{
											OFFSET -4.596550 0.000000 0.000000
											CHANNELS 3 Xrotation Yrotation Zrotation
											End Site
											{
												OFFSET -0.057701 4.578827 0.399218
											}
										}
									}
								}
								JOINT newVegas:RightHandRing1
								{
									OFFSET -17.732719 0.121887 -4.201567
									CHANNELS 3 Xrotation Yrotation Zrotation
									JOINT newVegas:RightHandRing2
									{
										OFFSET -2.733170 0.000000 0.000000
										CHANNELS 3 Xrotation Yrotation Zrotation
										JOINT newVegas:RightHandRing3
										{
											OFFSET -3.178268 0.000000 0.000000
											CHANNELS 3 Xrotation Yrotation Zrotation
											End Site
											{
												OFFSET -0.119102 3.170624 0.185394
											}
										}
									}
								}
								JOINT newVegas:RightHandPinky1
								{
									OFFSET -15.989624 -0.606689 -7.535461
									CHANNELS 3 Xrotation Yrotation Zrotation
									JOINT newVegas:RightHandPinky2
									{
										OFFSET -2.538986 0.000000 0.000000
										CHANNELS 3 Xrotation Yrotation Zrotation
										JOINT newVegas:RightHandPinky3
										{
											OFFSET -2.593102 0.000000 0.000000
											CHANNELS 3 Xrotation Yrotation Zrotation
											End Site
											{
												OFFSET 0.150902 2.584198 0.152708
											}
										}
									}
								}
							}
							JOINT newVegas:Right_CapeC
							{
								OFFSET -15.715958 -8.608795 -6.935905
								CHANNELS 3 Xrotation Yrotation Zrotation
								JOINT newVegas:Right_CapeC1
								{
									OFFSET 0.000000 -8.688499 0.000000
									CHANNELS 3 Xrotation Yrotation Zrotation
									End Site
									{
										OFFSET 0.000000 8.688499 0.000000
									}
								}
							}
							JOINT newVegas:Right_Sleeve
							{
								OFFSET -0.267448 -0.649994 0.577675
								CHANNELS 3 Xrotation Yrotation Zrotation
								End Site
								{
									OFFSET 0.000000 15.991302 0.000000
								}
							}
						}
						JOINT newVegas:Right_CapeA
						{
							OFFSET -5.115540 -8.608795 -10.395824
							CHANNELS 3 Xrotation Yrotation Zrotation
							JOINT newVegas:Right_CapeA1
							{
								OFFSET 0.000000 -8.688499 0.000000
								CHANNELS 3 Xrotation Yrotation Zrotation
								End Site
								{
									OFFSET 0.000000 8.688499 0.000000
								}
							}
						}
						JOINT newVegas:Right_CapeB
						{
							OFFSET -26.118187 -8.608795 -7.079266
							CHANNELS 3 Xrotation Yrotation Zrotation
							JOINT newVegas:Right_CapeB1
							{
								OFFSET 0.000000 -8.688499 0.000000
								CHANNELS 3 Xrotation Yrotation Zrotation
								End Site
								{
									OFFSET 0.000000 8.688499 0.000000
								}
							}
						}
					}
				}
				JOINT newVegas:Left_Collar
				{
					OFFSET 18.625099 8.655502 8.828100
					CHANNELS 3 Xrotation Yrotation Zrotation
					JOINT newVegas:Left_Collar1
					{
						OFFSET 14.783401 10.540405 -1.259500
						CHANNELS 3 Xrotation Yrotation Zrotation
						End Site
						{
							OFFSET 0.000000 18.199875 0.000000
						}
					}
				}
				JOINT newVegas:Collar_Back
				{
					OFFSET 0.000000 15.630707 -20.132601
					CHANNELS 3 Xrotation Yrotation Zrotation
					End Site
					{
						OFFSET 0.000000 22.523010 0.000000
					}
				}
				JOINT newVegas:Left_Peck
				{
					OFFSET 17.239599 -5.132599 25.482599
					CHANNELS 3 Xrotation Yrotation Zrotation
					End Site
					{
						OFFSET 0.000000 22.523010 0.000000
					}
				}
				JOINT newVegas:Right_Peck
				{
					OFFSET -17.239599 -5.132202 25.482599
					CHANNELS 3 Xrotation Yrotation Zrotation
					End Site
					{
						OFFSET 0.000000 22.523010 0.000000
					}
				}
				JOINT newVegas:Right_Collar
				{
					OFFSET -18.625099 8.655792 8.828100
					CHANNELS 3 Xrotation Yrotation Zrotation
					JOINT newVegas:Right_Collar1
					{
						OFFSET -14.783401 10.539993 -1.259500
						CHANNELS 3 Xrotation Yrotation Zrotation
						End Site
						{
							OFFSET 0.000000 18.199631 0.000000
						}
					}
				}
			}
		}
		JOINT newVegas:Belly
		{
			OFFSET 0.000000 -6.540398 9.014299
			CHANNELS 3 Xrotation Yrotation Zrotation
			End Site
			{
				OFFSET 0.000000 11.566666 0.000000
			}
		}
	}
	JOINT newVegas:ElvisFacialAnim_Joint
	{
		OFFSET 1.000000 -95.330101 -8.825800
		CHANNELS 3 Xrotation Yrotation Zrotation
		End Site
		{
			OFFSET 0.000000 35.315800 0.000000
		}
	}
}
MOTION
Frames: 4
Frame Time: 0.033333
-5.712477 25.790611 387.315918 270.542044 11.050955 -11.826257 0.000000 -0.000001 0.000000 -42.038640 6.700471 21.786610 3.140588 9.378723 -3.625387 12.285369 13.557990 -30.327812 -0.000000 0.000003 0.000003 0.000002 -0.000001 -0.000002 -59.560431 -5.090925 -22.595753 35.391336 -4.849262 1.363032 -11.999065 -9.921080 22.549277 0.000000 0.000000 -0.000000 0.000001 0.000000 -0.000000 1.647060 -1.328235 1.547962 9.585682 -1.051837 0.325756 9.580875 -1.102014 0.281088 3.872835 -0.197432 0.353245 3.872869 -0.197429 0.353254 0.000001 0.000000 -0.000001 3.872870 -0.197428 0.353248 3.872893 -0.197431 0.353248 -0.000000 0.000000 -0.000000 0.000001 0.000000 -0.000001 -0.332913 2.976077 27.587324 -17.704439 21.085414 -7.262565 0.000026 -57.338721 0.000007 -3.500399 -23.349552 -0.907874 4.615526 3.651820 4.114388 2.256187 5.910777 12.492746 0.000003 -0.000001 0.000001 -5.701036 1.638143 -62.182097 3.505902 5.362006 -66.334592 -0.000001 -0.000003 0.000003 -1.777896 5.096497 -63.775430 3.809891 5.484624 -69.550143 -0.000001 0.000001 -0.000001 -0.428169 6.118004 -68.082929 3.171732 5.203414 -62.706328 -0.000000 -0.000000 -0.000003 3.668889 8.963337 -74.055315 3.558316 5.384569 -66.894388 -0.000001 -0.000007 0.000005 -0.000000 0.000000 0.000001 -0.000000 0.000000 0.000001 -0.000000 -0.000000 0.000000 -0.000000 -0.000001 -0.000000 -0.000000 -0.000001 -0.000001 -0.000000 -0.000001 -0.000000 -0.000000 -0.000002 0.000000 -0.424348 -9.023800 -6.014651 -26.026682 -25.897869 -5.228217 0.000009 32.900379 0.000004 -63.730945 5.913026 16.832149 -10.209524 4.434467 3.725421 12.147375 -9.606057 -3.957278 -0.000000 -0.000002 0.000003 -4.829182 4.616778 35.965860 1.063254 -2.963860 39.462378 -0.000004 -0.000001 -0.000001 0.920906 -4.995107 35.993137 1.184427 -3.105015 41.751502 0.000001 -0.000000 -0.000001 5.701005 -11.004423 38.314738 1.478091 -3.405089 46.919879 -0.000003 0.000001 0.000001 6.401300 -20.396760 42.506484 1.135212 -3.049036 40.834409 0.000000 -0.000002 0.000000 0.000001 0.000000 -0.000003 0.000000 0.000001 -0.000003 0.000000 0.000001 -0.000002 -0.000000 0.000003 0.000002 0.000000 0.000002 0.000002 -0.000000 0.000003 0.000002 0.000000 0.000002 0.000002 0.000000 -0.000000 -0.000001 0.000000 -0.000000 -0.000001 0.000000 -0.000000 -0.000001 0.000000 -0.000000 -0.000001 0.000000 -0.000000 -0.000001 0.000000 -0.000000 -0.000001 0.000000 -0.000000 -0.000001 -0.000000 -0.000001 0.000000 0.000000 -0.000001 0.000000 
-6.374302 24.294052 392.361328 270.253401 11.508167 -10.963876 -0.000000 0.000001 -0.000001 -34.699547 5.084979 23.012343 18.836646 7.157706 0.339945 -4.465475 18.592374 -24.504837 0.000000 0.000003 0.000002 0.000001 -0.000001 0.000000 -41.958788 -11.905033 -17.579648 31.749404 -3.649855 0.073347 -15.685430 -9.189290 14.983036 0.000001 0.000001 0.000001 0.000002 0.000001 -0.000000 4.292303 -1.500949 2.064798 8.643868 -1.022011 0.193315 8.636122 -1.088929 0.170932 3.937709 -0.177287 0.299182 3.937719 -0.177285 0.299182 -0.000001 0.000000 0.000001 3.937701 -0.177274 0.299178 3.937709 -0.177302 0.299185 0.000001 -0.000000 0.000000 -0.000001 0.000000 0.000001 -2.221100 6.332924 22.073513 -8.763627 22.229558 -10.673152 0.000019 -61.223439 0.000017 6.924103 -28.175751 4.096158 2.761973 1.789355 4.428575 2.524883 4.699451 10.210798 0.000004 -0.000001 -0.000001 -7.501879 -1.997876 -51.766875 2.780826 4.983198 -58.305111 -0.000001 -0.000000 0.000001 -1.348751 4.229625 -53.160223 3.013974 5.119293 -60.952793 -0.000005 -0.000001 0.000001 1.530839 6.502169 -57.481246 2.529034 4.819231 -55.358734 -0.000000 -0.000001 -0.000000 6.558442 11.444449 -63.975882 2.820948 5.007648 -58.766032 -0.000002 -0.000000 0.000002 0.000001 -0.000000 0.000001 0.000001 -0.000000 0.000001 0.000001 -0.000000 0.000001 0.000001 0.000000 0.000000 0.000001 -0.000001 0.000000 0.000001 0.000000 0.000000 0.000001 -0.000000 0.000000 -1.235504 -10.906098 -3.062257 -26.392397 -33.193924 -8.798706 -0.000005 38.985466 -0.000002 -65.113518 2.353690 3.422629 -13.190187 7.604624 3.299324 11.313601 -7.039782 1.410426 0.000001 -0.000004 -0.000001 -4.157407 12.289845 17.586381 0.545210 -2.188449 27.975980 -0.000006 0.000001 0.000000 0.341745 -3.909801 20.587385 0.581917 -2.256129 28.922436 -0.000002 -0.000000 0.000002 4.947997 -14.026535 24.220339 0.685116 -2.433393 31.444179 0.000002 0.000002 0.000000 3.820739 -23.875420 29.383317 0.567080 -2.229075 28.543299 0.000000 0.000002 -0.000001 0.000000 0.000000 0.000001 0.000000 -0.000000 -0.000001 0.000000 0.000000 -0.000001 0.000000 0.000002 0.000001 0.000000 0.000003 0.000001 0.000000 0.000002 0.000001 0.000000 0.000003 0.000001 0.000000 0.000000 0.000000 0.000000 0.000000 0.000000 0.000000 0.000000 0.000000 0.000000 0.000000 0.000000 0.000000 0.000000 0.000000 0.000000 0.000000 0.000000 0.000000 0.000000 0.000000 0.000000 -0.000000 0.000001 -0.000000 0.000001 -0.000001 
-7.112752 21.843666 397.044739 273.600275 11.127887 -9.723235 0.000000 0.000001 -0.000001 -24.553944 8.626897 20.928635 15.076295 4.300685 3.016821 -8.299813 18.513747 -18.111005 0.000000 0.000001 0.000001 0.000000 0.000000 -0.000000 -27.749083 -16.691883 -10.956052 27.242104 -2.057003 -1.127591 -19.681030 -9.349738 7.210662 -0.000003 -0.000001 -0.000001 0.000000 0.000001 -0.000000 6.347842 -1.284205 2.278231 7.345755 -0.883347 -0.012607 7.336823 -0.953601 -0.014516 3.790762 -0.163266 0.282944 3.790738 -0.163266 0.282952 -0.000002 0.000000 0.000000 3.790856 -0.163247 0.282943 3.790565 -0.163303 0.282951 -0.000001 0.000000 0.000000 -0.000002 0.000000 0.000000 -3.839700 11.256454 16.286726 -3.329851 20.776411 -15.142437 0.000018 -57.254085 0.000026 11.822160 -32.582116 4.904764 0.630146 -0.343123 4.642436 2.838588 3.279324 7.631764 0.000000 -0.000002 0.000000 -8.334871 -6.890429 -40.116027 2.029827 4.434213 -49.176122 -0.000003 -0.000000 -0.000001 -0.831250 3.521299 -41.051646 2.186941 4.564793 -51.178348 -0.000004 -0.000001 0.000002 3.205710 7.892462 -45.359262 1.864708 4.286402 -47.004505 -0.000001 -0.000001 0.000003 8.541866 15.602911 -52.395057 2.056854 4.457336 -49.524701 -0.000001 -0.000002 0.000002 -0.000000 0.000000 -0.000001 -0.000000 0.000000 -0.000001 -0.000000 0.000000 -0.000000 0.000000 0.000001 -0.000000 0.000000 0.000000 -0.000000 0.000000 0.000001 -0.000000 0.000000 -0.000000 -0.000000 -2.226523 -12.718494 -1.431918 -27.406346 -39.710979 -12.512568 0.000004 43.218804 -0.000004 -65.572999 1.109989 -4.964489 -15.092146 9.541399 3.181932 10.817238 -5.514035 4.756578 0.000002 -0.000004 0.000001 -1.626349 17.031369 5.941336 0.306642 -1.663587 20.886765 -0.000001 -0.000003 -0.000002 0.134898 -3.177554 11.085743 0.310102 -1.672608 21.005565 -0.000002 -0.000000 0.000003 3.718580 -15.914802 15.371496 0.336652 -1.740113 21.896622 -0.000002 -0.000001 -0.000001 1.379271 -25.848636 20.966748 0.308721 -1.668985 20.957973 0.000002 -0.000002 -0.000002 -0.000000 0.000000 0.000000 0.000000 0.000000 0.000000 -0.000000 0.000000 0.000000 -0.000000 -0.000001 -0.000000 -0.000000 0.000000 -0.000002 -0.000000 -0.000001 -0.000000 -0.000000 -0.000000 -0.000001 0.000000 0.000001 -0.000000 0.000000 0.000001 -0.000000 0.000000 0.000001 -0.000000 0.000000 0.000001 -0.000000 0.000000 0.000001 -0.000000 0.000000 0.000001 -0.000000 0.000000 0.000001 -0.000000 -0.000000 -0.000000 0.000000 0.000000 0.000001 -0.000001 
-7.844356 19.174248 402.046570 281.387319 9.733902 -7.910332 -0.000000 0.000000 0.000000 -25.924236 11.311154 16.114657 14.696508 -4.337079 3.943956 -7.499590 19.455212 -12.479976 -0.000000 -0.000002 0.000000 -0.000000 0.000000 0.000000 -18.159578 -18.596116 -5.153131 16.856207 -3.106236 -2.248304 -17.351237 -13.114917 5.068446 -0.000000 0.000001 0.000000 -0.000001 0.000001 0.000001 6.265389 -0.838522 1.822400 6.082702 -0.613799 -0.392935 6.075825 -0.671366 -0.385733 3.440911 -0.152345 0.298652 3.440910 -0.152347 0.298658 0.000001 0.000001 -0.000000 3.440896 -0.152345 0.298652 3.440946 -0.152348 0.298660 -0.000000 0.000000 -0.000000 0.000001 0.000001 -0.000000 -4.645113 16.524277 12.532274 -2.561014 17.560563 -21.523130 -0.000003 -48.966360 0.000002 15.305738 -33.442163 4.281877 -1.562843 -2.511235 4.700648 3.162940 1.793955 5.038444 0.000003 -0.000003 -0.000005 -7.636573 -12.294978 -28.313760 1.367713 3.763428 -39.933162 -0.000003 -0.000000 0.000000 -0.368829 3.068785 -28.747798 1.457551 3.867975 -41.282787 -0.000003 0.000000 0.000001 3.995642 10.093006 -33.001302 1.277918 3.653713 -38.544923 0.000002 0.000001 0.000000 8.687585 20.804828 -40.350142 1.383177 3.781789 -40.168148 -0.000002 -0.000003 -0.000002 -0.000001 -0.000000 -0.000001 -0.000001 -0.000000 -0.000001 -0.000000 -0.000000 -0.000001 0.000000 -0.000002 0.000001 0.000000 -0.000003 0.000001 0.000000 -0.000002 0.000001 0.000000 -0.000003 0.000001 -3.061850 -14.092616 -1.208982 -28.777698 -47.300115 -14.347125 -0.000011 46.711657 0.000002 -65.799420 4.561020 -6.925473 -15.369608 9.817863 3.174388 10.747356 -5.298529 5.239054 -0.000002 -0.000001 0.000001 -1.122014 17.677805 4.231868 0.277795 -1.585901 19.868757 -0.000004 0.000000 -0.000002 0.115129 -3.069943 9.721617 0.277798 -1.585895 19.868744 0.000000 0.000001 -0.000000 3.491948 -16.177412 14.088970 0.296268 -1.636094 20.525765 0.000002 0.000001 0.000002 0.974343 -26.111332 19.736134 0.277779 -1.585898 19.868762 -0.000001 0.000001 0.000001 0.000000 -0.000000 0.000001 0.000000 -0.000000 0.000001 0.000001 -0.000000 0.000003 -0.000001 -0.000002 0.000002 -0.000001 -0.000001 0.000002 -0.000001 -0.000002 0.000002 -0.000001 -0.000001 0.000002 -0.000002 0.000000 -0.000000 -0.000002 0.000000 -0.000000 -0.000002 0.000000 -0.000000 -0.000002 0.000000 -0.000000 -0.000002 0.000000 -0.000000 -0.000002 0.000000 -0.000000 -0.000002 0.000000 -0.000000 0.000001 0.000000 -0.000000 -0.000000 0.000000 0.000000 
